<svg xmlns="http://www.w3.org/2000/svg" viewBox="0 0 134.55 134.54"><defs><style>.cls-1{fill:#60b459;}.cls-1,.cls-2,.cls-3{stroke:#9d9d9c;stroke-miterlimit:10;stroke-width:0.5px;}.cls-3{fill:#5fb459;}</style></defs><g id="Capa_2" data-name="Capa 2"><g id="Layer_1" data-name="Layer 1"><polygon class="cls-1" points="95.75 76.65 76.66 95.74 76.66 95.75 38.46 95.75 38.46 95.74 57.55 76.65 95.75 76.65"/><polygon class="cls-2" points="133.95 38.45 114.86 57.54 114.86 57.55 76.66 57.55 76.66 57.54 95.75 38.45 133.95 38.45"/><polygon class="cls-2" points="57.55 114.85 38.46 133.94 38.44 133.95 0.25 133.95 0.25 133.94 19.34 114.85 57.55 114.85"/><polygon class="cls-1" points="95.76 0.25 95.76 38.45 95.75 38.45 76.66 57.54 76.66 19.34 95.75 0.25 95.76 0.25"/><polygon class="cls-2" points="57.56 38.45 57.56 76.65 57.55 76.65 38.46 95.74 38.46 57.54 57.55 38.45 57.56 38.45"/><polygon class="cls-3" points="19.35 76.65 19.35 114.85 19.34 114.85 0.25 133.94 0.25 95.74 19.34 76.65 19.35 76.65"/></g></g></svg>